<?xml version="1.0" standalone="no"?>
<!DOCTYPE svg PUBLIC "-//W3C//DTD SVG 20010904//EN"
 "http://www.w3.org/TR/2001/REC-SVG-20010904/DTD/svg10.dtd">
<svg version="1.0" xmlns="http://www.w3.org/2000/svg"
 width="512.000000pt" height="512.000000pt" viewBox="0 0 512.000000 512.000000"
 preserveAspectRatio="xMidYMid meet">

<g transform="translate(0.000000,512.000000) scale(0.100000,-0.100000)"
fill="#000000" stroke="none">
<path d="M493 5105 c-179 -39 -351 -178 -433 -350 -58 -121 -60 -145 -60 -760
0 -625 -2 -603 71 -672 43 -40 81 -54 145 -54 83 0 148 41 190 121 18 33 19
73 24 600 5 614 4 594 62 646 55 50 38 49 638 54 554 5 566 5 605 27 77 41
115 103 115 187 0 68 -12 102 -53 145 -69 73 -46 71 -677 70 -435 0 -579 -4
-627 -14z"/>
<path d="M3395 5101 c-47 -22 -99 -74 -114 -114 -6 -16 -11 -53 -11 -83 0 -85
39 -147 120 -190 33 -18 73 -19 600 -24 614 -5 594 -4 646 -62 55 -60 54 -44
54 -623 0 -353 4 -551 11 -579 30 -119 161 -187 283 -146 44 14 111 87 126
137 8 27 10 206 8 618 -3 576 -4 580 -27 645 -59 168 -177 303 -328 376 -128
62 -147 64 -768 64 -524 0 -563 -2 -600 -19z"/>
<path d="M860 4347 c-25 -13 -58 -43 -75 -66 l-30 -43 -3 -669 c-2 -644 -2
-670 17 -706 10 -21 32 -50 48 -65 62 -59 50 -58 676 -58 l573 0 51 25 c63 32
100 82 113 158 7 36 10 274 8 674 l-3 618 -28 48 c-15 26 -47 60 -69 75 l-42
27 -596 3 -596 2 -44 -23z m950 -787 l0 -390 -320 0 -320 0 0 383 c0 211 3
387 7 390 3 4 147 7 320 7 l313 0 0 -390z"/>
<path d="M3210 4359 c-44 -18 -90 -59 -113 -102 -22 -42 -22 -44 -22 -532 0
-483 0 -491 22 -530 24 -46 54 -75 103 -101 33 -18 66 -19 525 -19 l490 0 45
25 c24 14 58 45 75 68 l30 44 0 513 0 513 -31 43 c-18 24 -51 54 -75 66 -42
23 -43 23 -533 22 -298 0 -501 -4 -516 -10z m738 -636 l2 -223 -225 0 -225 0
0 225 0 225 223 -2 222 -3 3 -222z"/>
<path d="M2592 4167 c-50 -19 -102 -65 -123 -111 -18 -39 -19 -79 -19 -783 l0
-743 -765 0 c-837 0 -805 2 -868 -58 -50 -47 -70 -97 -65 -168 5 -77 38 -131
105 -171 l48 -28 905 0 905 0 40 22 c46 24 75 54 101 103 18 33 19 75 19 905
0 689 -3 878 -13 907 -7 20 -33 54 -56 76 -63 58 -140 75 -214 49z"/>
<path d="M3245 2875 c-5 -2 -27 -6 -48 -10 -47 -8 -113 -65 -138 -120 -16 -34
-19 -67 -19 -220 0 -99 5 -197 11 -218 25 -91 122 -153 224 -145 110 9 181 90
192 217 l6 70 407 3 406 3 42 27 c138 92 126 291 -23 371 -39 22 -49 22 -545
24 -278 1 -509 0 -515 -2z"/>
<path d="M3625 2228 c-89 -31 -152 -129 -142 -219 7 -59 25 -95 68 -137 49
-48 110 -62 266 -62 l133 0 -2 -317 -3 -318 -292 -3 -293 -2 0 247 c0 144 -5
264 -11 286 -6 21 -26 56 -45 77 -98 108 -272 87 -344 -40 l-25 -45 0 -395 c0
-388 0 -396 22 -436 27 -51 72 -90 121 -104 25 -8 217 -10 598 -8 l561 3 39
27 c21 15 50 44 64 65 l25 37 3 585 c2 404 0 598 -8 624 -14 49 -65 106 -115
128 -36 17 -70 18 -315 18 -165 0 -287 -5 -305 -11z"/>
<path d="M886 1936 c-49 -18 -94 -60 -117 -111 -17 -37 -19 -73 -19 -481 0
-438 0 -441 23 -483 12 -24 42 -57 66 -75 l43 -31 583 0 583 0 44 30 c23 17
54 51 68 75 l25 45 3 415 c2 280 -1 430 -8 460 -15 61 -52 112 -103 141 l-42
24 -555 2 c-454 2 -562 0 -594 -11z m874 -591 l0 -175 -292 2 -293 3 -3 173
-2 172 295 0 295 0 0 -175z"/>
<path d="M2522 1928 c-72 -12 -142 -76 -162 -146 -14 -51 -13 -555 1 -607 17
-61 91 -129 156 -144 44 -11 61 -10 106 3 64 19 129 82 146 142 7 23 11 147
11 305 0 214 -3 275 -15 310 -36 100 -136 156 -243 137z"/>
<path d="M171 1848 c-49 -8 -78 -25 -116 -65 -57 -62 -56 -56 -53 -693 3 -582
4 -585 27 -650 69 -197 214 -342 411 -411 65 -23 69 -24 645 -27 409 -2 591 0
618 8 47 14 115 74 134 117 7 18 13 57 13 88 0 87 -38 148 -120 191 -33 18
-73 19 -600 24 -614 5 -594 4 -646 62 -55 60 -54 44 -54 623 0 353 -4 551 -11
579 -27 108 -134 174 -248 154z"/>
<path d="M4870 1850 c-81 -14 -150 -78 -169 -156 -7 -28 -11 -226 -11 -579 0
-507 -1 -538 -19 -573 -22 -43 -53 -73 -98 -96 -28 -14 -94 -16 -568 -16 -353
0 -551 -4 -579 -11 -54 -13 -110 -59 -136 -110 -24 -45 -27 -134 -7 -182 19
-43 87 -103 134 -117 27 -8 209 -10 618 -8 l580 3 73 27 c195 71 334 211 403
408 23 65 24 68 27 650 3 661 6 636 -73 709 -25 23 -48 41 -52 41 -5 1 -26 4
-48 8 -22 4 -56 5 -75 2z"/>
</g>
</svg>
